<svg width="200" height="200" viewBox="0 0 200 200" xmlns="http://www.w3.org/2000/svg">
  <!-- QR Code Pattern -->
  <rect width="200" height="200" fill="white"/>
  
  <!-- Corner squares -->
  <rect x="10" y="10" width="50" height="50" fill="black"/>
  <rect x="20" y="20" width="30" height="30" fill="white"/>
  <rect x="25" y="25" width="20" height="20" fill="black"/>
  
  <rect x="140" y="10" width="50" height="50" fill="black"/>
  <rect x="150" y="20" width="30" height="30" fill="white"/>
  <rect x="155" y="25" width="20" height="20" fill="black"/>
  
  <rect x="10" y="140" width="50" height="50" fill="black"/>
  <rect x="20" y="150" width="30" height="30" fill="white"/>
  <rect x="25" y="155" width="20" height="20" fill="black"/>
  
  <!-- Data pattern -->
  <rect x="70" y="10" width="10" height="10" fill="black"/>
  <rect x="90" y="10" width="10" height="10" fill="black"/>
  <rect x="110" y="10" width="10" height="10" fill="black"/>
  <rect x="130" y="10" width="10" height="10" fill="black"/>
  
  <rect x="10" y="70" width="10" height="10" fill="black"/>
  <rect x="30" y="70" width="10" height="10" fill="black"/>
  <rect x="50" y="70" width="10" height="10" fill="black"/>
  
  <rect x="70" y="30" width="10" height="10" fill="black"/>
  <rect x="90" y="30" width="10" height="10" fill="black"/>
  <rect x="110" y="30" width="10" height="10" fill="black"/>
  <rect x="130" y="30" width="10" height="10" fill="black"/>
  
  <rect x="70" y="50" width="10" height="10" fill="black"/>
  <rect x="90" y="50" width="10" height="10" fill="black"/>
  <rect x="110" y="50" width="10" height="10" fill="black"/>
  <rect x="130" y="50" width="10" height="10" fill="black"/>
  
  <rect x="70" y="70" width="10" height="10" fill="black"/>
  <rect x="90" y="70" width="10" height="10" fill="black"/>
  <rect x="110" y="70" width="10" height="10" fill="black"/>
  <rect x="130" y="70" width="10" height="10" fill="black"/>
  <rect x="150" y="70" width="10" height="10" fill="black"/>
  <rect x="170" y="70" width="10" height="10" fill="black"/>
  <rect x="190" y="70" width="10" height="10" fill="black"/>
  
  <rect x="70" y="90" width="10" height="10" fill="black"/>
  <rect x="90" y="90" width="10" height="10" fill="black"/>
  <rect x="110" y="90" width="10" height="10" fill="black"/>
  <rect x="130" y="90" width="10" height="10" fill="black"/>
  <rect x="150" y="90" width="10" height="10" fill="black"/>
  <rect x="170" y="90" width="10" height="10" fill="black"/>
  <rect x="190" y="90" width="10" height="10" fill="black"/>
  
  <rect x="70" y="110" width="10" height="10" fill="black"/>
  <rect x="90" y="110" width="10" height="10" fill="black"/>
  <rect x="110" y="110" width="10" height="10" fill="black"/>
  <rect x="130" y="110" width="10" height="10" fill="black"/>
  <rect x="150" y="110" width="10" height="10" fill="black"/>
  <rect x="170" y="110" width="10" height="10" fill="black"/>
  <rect x="190" y="110" width="10" height="10" fill="black"/>
  
  <rect x="70" y="130" width="10" height="10" fill="black"/>
  <rect x="90" y="130" width="10" height="10" fill="black"/>
  <rect x="110" y="130" width="10" height="10" fill="black"/>
  <rect x="130" y="130" width="10" height="10" fill="black"/>
  <rect x="150" y="130" width="10" height="10" fill="black"/>
  <rect x="170" y="130" width="10" height="10" fill="black"/>
  <rect x="190" y="130" width="10" height="10" fill="black"/>
  
  <rect x="70" y="150" width="10" height="10" fill="black"/>
  <rect x="90" y="150" width="10" height="10" fill="black"/>
  <rect x="110" y="150" width="10" height="10" fill="black"/>
  <rect x="130" y="150" width="10" height="10" fill="black"/>
  <rect x="150" y="150" width="10" height="10" fill="black"/>
  <rect x="170" y="150" width="10" height="10" fill="black"/>
  <rect x="190" y="150" width="10" height="10" fill="black"/>
  
  <rect x="70" y="170" width="10" height="10" fill="black"/>
  <rect x="90" y="170" width="10" height="10" fill="black"/>
  <rect x="110" y="170" width="10" height="10" fill="black"/>
  <rect x="130" y="170" width="10" height="10" fill="black"/>
  <rect x="150" y="170" width="10" height="10" fill="black"/>
  <rect x="170" y="170" width="10" height="10" fill="black"/>
  <rect x="190" y="170" width="10" height="10" fill="black"/>
  
  <rect x="70" y="190" width="10" height="10" fill="black"/>
  <rect x="90" y="190" width="10" height="10" fill="black"/>
  <rect x="110" y="190" width="10" height="10" fill="black"/>
  <rect x="130" y="190" width="10" height="10" fill="black"/>
  <rect x="150" y="190" width="10" height="10" fill="black"/>
  <rect x="170" y="190" width="10" height="10" fill="black"/>
  <rect x="190" y="190" width="10" height="10" fill="black"/>
  
  <!-- EasyPaisa branding -->
  <text x="100" y="220" text-anchor="middle" font-family="Arial, sans-serif" font-size="12" fill="#00A651">EasyPaisa QR</text>
</svg>