<svg width="200" height="200" viewBox="0 0 200 200" xmlns="http://www.w3.org/2000/svg">
  <!-- QR Code Pattern -->
  <rect width="200" height="200" fill="white"/>
  
  <!-- Corner squares -->
  <rect x="10" y="10" width="50" height="50" fill="black"/>
  <rect x="20" y="20" width="30" height="30" fill="white"/>
  <rect x="25" y="25" width="20" height="20" fill="black"/>
  
  <rect x="140" y="10" width="50" height="50" fill="black"/>
  <rect x="150" y="20" width="30" height="30" fill="white"/>
  <rect x="155" y="25" width="20" height="20" fill="black"/>
  
  <rect x="10" y="140" width="50" height="50" fill="black"/>
  <rect x="20" y="150" width="30" height="30" fill="white"/>
  <rect x="25" y="155" width="20" height="20" fill="black"/>
  
  <!-- Data pattern (slightly different from EasyPaisa) -->
  <rect x="80" y="10" width="10" height="10" fill="black"/>
  <rect x="100" y="10" width="10" height="10" fill="black"/>
  <rect x="120" y="10" width="10" height="10" fill="black"/>
  
  <rect x="10" y="80" width="10" height="10" fill="black"/>
  <rect x="30" y="80" width="10" height="10" fill="black"/>
  <rect x="50" y="80" width="10" height="10" fill="black"/>
  
  <rect x="80" y="30" width="10" height="10" fill="black"/>
  <rect x="100" y="30" width="10" height="10" fill="black"/>
  <rect x="120" y="30" width="10" height="10" fill="black"/>
  
  <rect x="80" y="50" width="10" height="10" fill="black"/>
  <rect x="100" y="50" width="10" height="10" fill="black"/>
  <rect x="120" y="50" width="10" height="10" fill="black"/>
  
  <rect x="80" y="70" width="10" height="10" fill="black"/>
  <rect x="100" y="70" width="10" height="10" fill="black"/>
  <rect x="120" y="70" width="10" height="10" fill="black"/>
  <rect x="140" y="70" width="10" height="10" fill="black"/>
  <rect x="160" y="70" width="10" height="10" fill="black"/>
  <rect x="180" y="70" width="10" height="10" fill="black"/>
  
  <rect x="80" y="90" width="10" height="10" fill="black"/>
  <rect x="100" y="90" width="10" height="10" fill="black"/>
  <rect x="120" y="90" width="10" height="10" fill="black"/>
  <rect x="140" y="90" width="10" height="10" fill="black"/>
  <rect x="160" y="90" width="10" height="10" fill="black"/>
  <rect x="180" y="90" width="10" height="10" fill="black"/>
  
  <rect x="80" y="110" width="10" height="10" fill="black"/>
  <rect x="100" y="110" width="10" height="10" fill="black"/>
  <rect x="120" y="110" width="10" height="10" fill="black"/>
  <rect x="140" y="110" width="10" height="10" fill="black"/>
  <rect x="160" y="110" width="10" height="10" fill="black"/>
  <rect x="180" y="110" width="10" height="10" fill="black"/>
  
  <rect x="80" y="130" width="10" height="10" fill="black"/>
  <rect x="100" y="130" width="10" height="10" fill="black"/>
  <rect x="120" y="130" width="10" height="10" fill="black"/>
  <rect x="140" y="130" width="10" height="10" fill="black"/>
  <rect x="160" y="130" width="10" height="10" fill="black"/>
  <rect x="180" y="130" width="10" height="10" fill="black"/>
  
  <rect x="80" y="150" width="10" height="10" fill="black"/>
  <rect x="100" y="150" width="10" height="10" fill="black"/>
  <rect x="120" y="150" width="10" height="10" fill="black"/>
  <rect x="140" y="150" width="10" height="10" fill="black"/>
  <rect x="160" y="150" width="10" height="10" fill="black"/>
  <rect x="180" y="150" width="10" height="10" fill="black"/>
  
  <rect x="80" y="170" width="10" height="10" fill="black"/>
  <rect x="100" y="170" width="10" height="10" fill="black"/>
  <rect x="120" y="170" width="10" height="10" fill="black"/>
  <rect x="140" y="170" width="10" height="10" fill="black"/>
  <rect x="160" y="170" width="10" height="10" fill="black"/>
  <rect x="180" y="170" width="10" height="10" fill="black"/>
  
  <rect x="80" y="190" width="10" height="10" fill="black"/>
  <rect x="100" y="190" width="10" height="10" fill="black"/>
  <rect x="120" y="190" width="10" height="10" fill="black"/>
  <rect x="140" y="190" width="10" height="10" fill="black"/>
  <rect x="160" y="190" width="10" height="10" fill="black"/>
  <rect x="180" y="190" width="10" height="10" fill="black"/>
  
  <!-- JazzCash branding -->
  <text x="100" y="220" text-anchor="middle" font-family="Arial, sans-serif" font-size="12" fill="#FF6B35">JazzCash QR</text>
</svg>